<?xml version="1.0" ?><svg style="enable-background:new 0 0 48 48;" version="1.1" viewBox="0 0 48 48" xml:space="preserve" xmlns="http://www.w3.org/2000/svg" xmlns:xlink="http://www.w3.org/1999/xlink"><g id="Padding__x26__Artboard"/><g id="Icons"><g><path d="M30.37793,10.1582H17.62207c-4.11572,0-7.46436,3.34766-7.46436,7.46387v12.75488    c0,4.11621,3.34863,7.46484,7.46436,7.46484h12.75586c4.11572,0,7.46436-3.34863,7.46436-7.46484V17.62207    C37.84229,13.50586,34.49365,10.1582,30.37793,10.1582z M34.29492,29.74902c-0.45264,0.44727-1.05908,0.58398-1.59375,0.70605    c-0.91895,0.20801-1.36035,0.35156-1.35156,1.31934c0.00098,0.1123-0.05273,0.21875-0.14404,0.28613    c-0.09082,0.06641-0.20947,0.08398-0.31592,0.04883c-1.52051-0.50293-2.82178-0.25293-4.22021,0.80859    C25.82959,33.5625,24.90625,33.90234,24,33.90234s-1.82959-0.33984-2.67041-0.98535    c-1.39746-1.06152-2.69873-1.31055-4.21924-0.80762c-0.10547,0.03516-0.22412,0.01758-0.31592-0.04883    c-0.09131-0.06738-0.14502-0.17383-0.14404-0.28613c0.00928-0.96777-0.43213-1.11133-1.35107-1.31934    c-0.53516-0.12207-1.14111-0.25879-1.59424-0.70605c-0.0874-0.08691-0.12305-0.21289-0.09375-0.33301    c0.0293-0.11914,0.12012-0.21484,0.23779-0.25098c1.87109-0.56934,3.20605-1.66797,4.08252-3.35742    c0.28027-0.54688,0.36719-0.9209,0.27344-1.17383c-0.09668-0.25977-0.42285-0.49512-1.02734-0.74121    c-0.32275-0.13184-0.63232-0.28516-0.94238-0.43848l-0.40869-0.2002c-0.15234-0.07227-0.23145-0.24414-0.18701-0.40723    c0.04053-0.14844,0.08154-0.2959,0.12842-0.43652c0.05371-0.16016,0.20947-0.25684,0.38086-0.23633l0.44775,0.06055    c0.30957,0.04004,0.62061,0.08105,0.92627,0.13379c0.5,0.0918,0.68896,0.03516,0.76074-0.02734    c0.06738-0.05957,0.1416-0.22852,0.11133-0.69238c-0.03857-0.56055-0.07764-1.12305-0.10352-1.68555    c-0.10889-2.37207,0.84961-4.1377,2.77148-5.1084c0.97168-0.49023,1.95801-0.74512,2.93213-0.75781c0.00195,0,0.00342,0,0.00488,0    s0.00293,0,0.00488,0c0.97412,0.0127,1.96045,0.26758,2.93213,0.75781c1.92188,0.9707,2.88037,2.73633,2.77148,5.10742    c-0.02539,0.56348-0.06445,1.12598-0.10303,1.68848c-0.03027,0.46191,0.04395,0.63086,0.11133,0.69043    c0.07031,0.06348,0.25781,0.11816,0.75586,0.02832c0.31055-0.05371,0.62256-0.09473,0.93262-0.13477l0.44629-0.06055    c0.16943-0.02148,0.32715,0.07617,0.38086,0.23633c0.04688,0.14062,0.0874,0.28809,0.12793,0.43652    c0.04443,0.16309-0.03418,0.33496-0.18701,0.40723l-0.40576,0.19922c-0.31055,0.15332-0.62158,0.30762-0.94434,0.43945    c-0.60498,0.24609-0.93164,0.48145-1.02832,0.74121c-0.09375,0.25293-0.00684,0.62695,0.27441,1.17578    c0.87598,1.6875,2.21143,2.78613,4.08154,3.35547c0.11768,0.03613,0.2085,0.13184,0.23779,0.25098    C34.41797,29.53613,34.38232,29.66211,34.29492,29.74902z M27.86572,12.37695c0,0.19336-0.15674,0.34961-0.3501,0.34961h-1.50781    c-0.19336,0-0.3501-0.15625-0.3501-0.34961s0.15674-0.34961,0.3501-0.34961h1.50781    C27.70898,12.02734,27.86572,12.18359,27.86572,12.37695z M17.98096,12.02734h6.2085c0.19336,0,0.3501,0.15625,0.3501,0.34961    s-0.15674,0.34961-0.3501,0.34961h-6.2085c-0.19336,0-0.3501-0.15625-0.3501-0.34961S17.7876,12.02734,17.98096,12.02734z" style="fill:#303030;"/></g></g></svg>